# 3ds Max Wavefront OBJ Exporter v0.97b - (c)2007 guruware
# File Created: 11.06.2025 10:43:05

#
# object lowpoly_face
#

v  -9.8716 37.3306 1.7016
v  -7.1590 26.8554 -4.1234
v  -3.1342 32.0673 0.7250
v  -9.7338 9.3596 3.2009
v  -3.9771 6.4572 18.0529
v  3.1342 32.0903 0.7364
v  9.8716 37.3537 1.7130
v  -16.1411 31.0832 -6.3142
v  8.6108 -26.3002 4.4477
v  9.3019 -37.3537 6.3067
v  20.5621 -28.0818 -2.3898
v  -11.1891 26.5155 -7.1212
v  -16.6224 23.4222 -5.2077
v  -34.6614 9.5848 -9.2342
v  -31.2311 -8.5354 -13.0337
v  11.1891 26.5385 -7.1098
v  7.1590 26.8784 -4.1120
v  9.7338 9.3826 3.2123
v  32.3360 36.2964 -7.1954
v  25.2024 30.6428 -8.1171
v  27.9203 26.9229 -9.9682
v  -8.6108 -26.3233 4.4363
v  -20.5621 -28.1049 -2.4012
v  -9.3019 -37.3537 6.3067
v  36.3045 25.8428 -18.0415
v  24.7938 23.3757 -7.2990
v  -2.6242 -3.0025 6.4128
v  -9.7923 -10.0613 6.7981
v  -2.6924 -9.8365 10.1991
v  16.6224 23.4452 -5.1963
v  34.6613 9.6079 -9.2228
v  -17.1457 -14.0159 1.1475
v  -8.1990 -12.9826 3.7271
v  16.1411 31.1063 -6.3028
v  -24.7938 23.3527 -7.3103
v  -9.6119 -0.3985 3.6141
v  3.9771 6.4572 18.0529
v  -11.9028 4.9520 2.0269
v  9.6119 -0.3754 3.6255
v  9.7923 -10.0383 6.8095
v  17.1457 -13.9928 1.1589
v  -25.2024 30.6197 -8.1285
v  6.5991 -20.8956 7.9960
v  -32.3360 36.2733 -7.2068
v  -0.0018 -13.3237 6.6536
v  -36.3045 25.8197 -18.0529
v  -27.9203 26.8998 -9.9796
v  -3.8804 0.8451 15.2189
v  3.8803 0.8451 15.2189
v  2.6924 -9.8365 10.1991
v  8.2237 -12.9771 3.7145
v  -6.5991 -20.9187 7.9846
v  2.6242 -3.0025 6.4128
v  -5.8807 -17.7244 5.8129
v  -0.0080 -18.2185 7.1159
v  31.2311 -8.5123 -13.0223
v  11.9028 4.9751 2.0383
v  5.8807 -17.7014 5.8243
# 58 vertices

vn -0.2911 -0.5214 0.8021
vn -0.8707 0.2934 0.3948
vn -0.0005 -0.1824 0.9832
vn -0.4258 -0.5215 0.7394
vn 0.5084 0.1736 0.8434
vn 0.0079 0.5160 0.8565
vn -0.4326 -0.2627 0.8624
vn 0.5711 0.3871 0.7239
vn 0.1553 -0.3468 0.9250
vn -0.5084 0.1748 0.8432
vn 0.6881 -0.0625 0.7229
vn 0.2911 -0.5214 0.8021
vn -0.4445 -0.5995 0.6656
vn -0.3978 0.4477 0.8008
vn 0.2493 0.0435 0.9674
vn -0.1031 -0.7469 0.6569
vn 0.0931 -0.7487 0.6563
vn -0.2493 0.0435 0.9674
vn -0.6699 0.2436 0.7013
vn 0.8670 0.2982 0.3992
vn -0.6713 0.1519 0.7255
vn 0.6699 0.2436 0.7013
vn -0.0931 -0.7487 0.6563
vn -0.5711 0.3871 0.7239
vn -0.0004 0.1665 0.9860
vn -0.7105 -0.0050 0.7037
vn -0.0016 0.5601 0.8284
vn 0.4445 -0.5995 0.6656
vn -0.4232 0.3032 0.8538
vn 0.4825 -0.1021 0.8699
vn 0.6351 -0.2446 0.7327
vn 0.2971 -0.5068 0.8093
vn -0.2592 -0.7634 0.5916
vn -0.2971 -0.5068 0.8093
vn -0.2530 0.3070 0.9174
vn -0.4363 0.0791 0.8963
vn -0.2401 -0.7770 0.5820
vn -0.6881 -0.0625 0.7229
vn -0.4825 -0.1021 0.8699
vn 0.0000 -0.4508 0.8926
vn 0.2609 -0.7626 0.5919
vn -0.6351 -0.2446 0.7327
vn -0.6647 0.1312 0.7355
vn 0.0000 0.4846 0.8747
vn -0.8609 -0.2386 0.4493
vn -0.1424 0.5782 0.8034
vn 0.0000 -0.7130 0.7012
vn 0.0000 -0.9163 0.4004
vn -0.1303 0.5773 0.8061
vn 0.7105 -0.0050 0.7037
vn 0.4326 -0.2627 0.8624
vn -0.0079 0.5160 0.8565
vn 0.8609 -0.2386 0.4493
vn 0.4232 0.3032 0.8538
vn 0.0002 -0.5488 0.8359
vn 0.4258 -0.5215 0.7394
vn 0.1031 -0.7469 0.6569
vn -0.5801 -0.4701 0.6653
vn 0.5801 -0.4701 0.6653
vn 0.6045 0.3321 0.7240
vn 0.1424 0.5782 0.8034
vn -0.1553 -0.3468 0.9250
vn -0.8613 0.3184 0.3960
vn 0.4363 0.0791 0.8963
vn 0.6647 0.1312 0.7355
vn 0.8611 0.3181 0.3967
vn -0.0014 0.3093 0.9510
vn 0.8703 0.2936 0.3955
vn 0.2507 0.3072 0.9180
vn 0.1263 0.5770 0.8069
vn -0.8671 0.2985 0.3989
vn 0.6713 0.1519 0.7255
vn 0.3955 0.4481 0.8017
vn 0.2405 -0.7771 0.5816
vn -0.6045 0.3321 0.7240
# 75 vertex normals

vt 0.3640 0.9997 0.5471
vt 0.4014 0.8595 0.3858
vt 0.4568 0.9292 0.5201
vt 0.3659 0.6253 0.5887
vt 0.4452 0.5864 1.0000
vt 0.5432 0.9295 0.5204
vt 0.6360 1.0000 0.5474
vt 0.2777 0.9161 0.3251
vt 0.6186 0.1480 0.6232
vt 0.6281 0.0000 0.6747
vt 0.7832 0.1241 0.4338
vt 0.3459 0.8549 0.3028
vt 0.2711 0.8135 0.3558
vt 0.0226 0.6283 0.2442
vt 0.0699 0.3857 0.1390
vt 0.6541 0.8552 0.3031
vt 0.5986 0.8598 0.3861
vt 0.6341 0.6256 0.5890
vt 0.9453 0.9858 0.3007
vt 0.8471 0.9102 0.2752
vt 0.8845 0.8604 0.2239
vt 0.3814 0.1476 0.6229
vt 0.2168 0.1238 0.4335
vt 0.3719 0.0000 0.6747
vt 1.0000 0.8459 0.0003
vt 0.8415 0.8129 0.2978
vt 0.4639 0.4598 0.6776
vt 0.3651 0.3653 0.6883
vt 0.4629 0.3683 0.7825
vt 0.7289 0.8138 0.3561
vt 0.9774 0.6286 0.2446
vt 0.2639 0.3124 0.5318
vt 0.3871 0.3262 0.6032
vt 0.7223 0.9164 0.3254
vt 0.1585 0.8126 0.2975
vt 0.3676 0.4947 0.6001
vt 0.5548 0.5864 1.0000
vt 0.3361 0.5663 0.5561
vt 0.6324 0.4950 0.6004
vt 0.6349 0.3656 0.6886
vt 0.7361 0.3127 0.5321
vt 0.1529 0.9099 0.2749
vt 0.5909 0.2203 0.7215
vt 0.0547 0.9855 0.3004
vt 0.5000 0.3217 0.6843
vt 0.0000 0.8456 -0.0000
vt 0.1155 0.8601 0.2236
vt 0.4466 0.5113 0.9215
vt 0.5534 0.5113 0.9215
vt 0.5371 0.3683 0.7825
vt 0.6133 0.3263 0.6029
vt 0.4091 0.2200 0.7211
vt 0.5361 0.4598 0.6776
vt 0.4190 0.2627 0.6610
vt 0.4999 0.2561 0.6971
vt 0.9301 0.3861 0.1393
vt 0.6639 0.5666 0.5565
vt 0.5810 0.2631 0.6613
# 58 texture coords

g lowpoly_face
f 1/1/1 2/2/1 3/3/1 
f 2/2/2 4/4/2 5/5/2 
f 6/6/3 7/7/3 1/1/3 3/3/3 
f 1/1/4 8/8/4 2/2/4 
f 9/9/5 10/10/5 11/11/5 
f 4/4/6 12/12/6 13/13/6 
f 4/4/7 14/14/7 15/15/7 
f 16/16/8 17/17/8 18/18/8 
f 19/19/9 20/20/9 21/21/9 
f 22/22/10 23/23/10 24/24/10 
f 25/25/11 21/21/11 26/26/11 
f 7/7/12 6/6/12 17/17/12 
f 8/8/13 12/12/13 2/2/13 
f 27/27/14 28/28/14 29/29/14 
f 30/30/15 31/31/15 26/26/15 
f 28/28/16 32/32/16 33/33/16 
f 7/7/17 34/34/17 20/20/17 
f 13/13/18 35/35/18 14/14/18 
f 36/36/19 32/32/19 28/28/19 
f 17/17/20 6/6/20 37/37/20 
f 15/15/21 32/32/21 38/38/21 
f 39/39/22 40/40/22 41/41/22 
f 1/1/23 42/42/23 8/8/23 
f 2/2/24 12/12/24 4/4/24 
f 9/9/25 22/22/25 24/24/25 10/10/25 
f 15/15/26 23/23/26 32/32/26 
f 37/37/27 6/6/27 3/3/27 5/5/27 
f 34/34/28 17/17/28 16/16/28 
f 4/4/29 13/13/29 14/14/29 
f 41/41/30 9/9/30 11/11/30 
f 41/41/31 43/43/31 9/9/31 
f 7/7/32 20/20/32 19/19/32 
f 29/29/33 28/28/33 33/33/33 
f 1/1/34 44/44/34 42/42/34 
f 27/27/35 36/36/35 28/28/35 
f 38/38/36 32/32/36 36/36/36 
f 29/29/37 33/33/37 45/45/37 
f 46/46/38 35/35/38 47/47/38 
f 32/32/39 23/23/39 22/22/39 
f 37/37/40 5/5/40 48/48/40 49/49/40 
f 50/50/41 51/51/41 40/40/41 
f 32/32/42 22/22/42 52/52/42 
f 15/15/43 38/38/43 4/4/43 
f 50/50/44 53/53/44 27/27/44 29/29/44 
f 36/36/45 48/48/45 5/5/45 38/38/45 
f 54/54/46 32/32/46 52/52/46 
f 29/29/47 45/45/47 50/50/47 
f 49/49/48 48/48/48 27/27/48 53/53/48 
f 55/55/49 54/54/49 52/52/49 
f 56/56/50 41/41/50 11/11/50 
f 18/18/51 56/56/51 31/31/51 
f 30/30/52 16/16/52 18/18/52 
f 57/57/53 37/37/53 49/49/53 39/39/53 
f 31/31/54 30/30/54 18/18/54 
f 9/9/55 43/43/55 52/52/55 22/22/55 
f 7/7/56 17/17/56 34/34/56 
f 40/40/57 51/51/57 41/41/57 
f 44/44/58 46/46/58 47/47/58 
f 19/19/59 21/21/59 25/25/59 
f 25/25/60 26/26/60 31/31/60 
f 41/41/61 58/58/61 43/43/61 
f 44/44/62 47/47/62 42/42/62 
f 4/4/63 38/38/63 5/5/63 
f 57/57/64 39/39/64 41/41/64 
f 56/56/65 18/18/65 57/57/65 
f 18/18/66 37/37/66 57/57/66 
f 43/43/67 55/55/67 52/52/67 
f 17/17/68 37/37/68 18/18/68 
f 40/40/69 39/39/69 53/53/69 
f 43/43/70 58/58/70 55/55/70 
f 2/2/71 5/5/71 3/3/71 
f 56/56/72 57/57/72 41/41/72 
f 40/40/73 53/53/73 50/50/73 
f 50/50/74 45/45/74 51/51/74 
f 35/35/75 46/46/75 14/14/75 
# 9 polygons - 66 triangles

